<?xml version="1.0" standalone="no"?>
<!DOCTYPE svg PUBLIC "-//W3C//DTD SVG 20010904//EN"
 "http://www.w3.org/TR/2001/REC-SVG-20010904/DTD/svg10.dtd">
<svg version="1.0" xmlns="http://www.w3.org/2000/svg"
 width="700.000000pt" height="700.000000pt" viewBox="0 0 700.000000 700.000000"
 preserveAspectRatio="xMidYMid meet">
<g transform="translate(0.000000,700.000000) scale(0.100000,-0.100000)"
fill="#171717" stroke="none">
<path d="M931 6979 c-444 -93 -775 -409 -900 -858 l-26 -96 0 -2525 0 -2525
26 -96 c125 -452 458 -767 906 -858 101 -21 115 -21 2563 -21 2448 0 2462 0
2563 21 448 91 781 406 906 858 l26 96 0 2525 0 2525 -26 96 c-125 452 -458
767 -906 858 -101 21 -113 21 -2570 20 -2420 0 -2470 -1 -2562 -20z m708
-1449 c402 -51 734 -356 815 -752 14 -69 16 -255 16 -1682 l0 -1606 -25 -16
c-20 -13 -39 -15 -97 -9 -164 15 -349 79 -473 165 -68 47 -169 144 -222 214
-60 80 -136 239 -165 346 l-22 85 -3 1608 -4 1607 25 25 c28 28 39 29 155 15z
m3877 -1035 l25 -25 -4 -1097 -3 -1098 -22 -85 c-29 -108 -98 -254 -161 -339
-164 -221 -415 -360 -699 -386 -58 -6 -77 -4 -97 9 l-25 17 2 1127 3 1127 23
75 c109 356 397 618 747 679 150 27 181 26 211 -4z m-2248 -1026 c315 -72 579
-306 684 -609 50 -145 51 -150 55 -767 l4 -582 -26 -27 c-25 -25 -29 -26 -103
-19 -132 11 -239 41 -357 100 -266 132 -438 353 -512 655 -13 54 -17 159 -20
642 -3 419 -1 582 7 598 6 12 21 25 33 30 30 11 135 2 235 -21z"/>
</g>
</svg>
